<svg width="48" height="48" viewBox="0 0 48 48" fill="none" xmlns="http://www.w3.org/2000/svg">
<path d="M24 48C37.2548 48 48 37.2548 48 24C48 10.7452 37.2548 0 24 0C10.7452 0 0 10.7452 0 24C0 37.2548 10.7452 48 24 48Z" fill="black"/>
<path d="M31.14 22.8C32.7969 22.8 34.14 21.4569 34.14 19.8C34.14 18.1432 32.7969 16.8 31.14 16.8C29.4832 16.8 28.14 18.1432 28.14 19.8C28.14 21.4569 29.4832 22.8 31.14 22.8Z" fill="white"/>
<path d="M26.7 19.5996C26.7 16.469 23.8962 13.6419 20.7 13.8733V29.4326C21.2048 32.2091 23.6721 34.9854 26.7 34.5805V19.5996Z" fill="white"/>
<path d="M16.4401 19.8C18.0969 19.8 19.4401 18.4569 19.4401 16.8C19.4401 15.1432 18.0969 13.8 16.4401 13.8C14.7832 13.8 13.4401 15.1432 13.4401 16.8C13.4401 18.4569 14.7832 19.8 16.4401 19.8Z" fill="white"/>
<path d="M19.4638 27.6172C19.4638 31.4528 19.4638 34.62 19.4638 34.62C14.9495 34.62 11.9401 31.4528 11.9401 27.6172C11.9401 23.7816 15.1232 20.6722 19.4638 20.6722C19.4638 20.6722 19.4638 23.7816 19.4638 27.6172Z" fill="white"/>
<path d="M34.14 29.1925C34.14 31.4693 31.3148 35.1839 28.14 34.5478V28.7484C28.5187 26.292 30.8779 23.2363 34.14 23.6114V29.1925Z" fill="white"/>
</svg>
